# WaveFront *.obj file (generated by Autodesk ATF)

mtllib Komode.mtl

g Körper1

v -199.800000 370.000000 -0.000000
v -199.800000 425.000000 -0.000000
v -199.800000 425.000000 -480.000000
v -199.800000 20.000000 -480.000000
v -199.800000 20.000000 -0.000000
v -199.800000 775.000000 -480.000000
v -199.800000 775.000000 -0.000000
v -199.800000 830.000000 -0.000000
v -199.800000 1180.000000 -0.000000
v -199.800000 1180.000000 -480.000000
v 180.000000 20.000000 0.000000
v 180.000000 370.000000 -0.000000
v 180.000000 775.000000 -480.000000
v 180.000000 775.000000 -0.000000
v -199.900000 830.000000 480.000000
v -199.900000 830.000000 -0.000000
v -199.900000 370.000000 -0.000000
v -199.900000 370.000000 480.000000
v 180.000000 425.000000 -0.000000
v 180.000000 830.000000 480.000000
v 180.000000 830.000000 -0.000000
v -200.000000 1180.000000 480.000000
v -200.000000 1180.000000 -480.000000
v 180.000000 1180.000000 -0.000000
v 180.000000 1180.000000 480.000000
v -200.000000 20.000000 -480.000000
v 180.000000 425.000000 -480.000000
v -200.000000 20.000000 480.000000
v 180.000000 370.000000 480.000000
v 180.000000 20.000000 480.000000
v 200.000000 -0.000000 500.000000
v 200.000000 -0.000000 -500.000000
v 200.000000 1200.000000 -500.000000
v 200.000000 1200.000000 500.000000
v -200.000000 -0.000000 500.000000
v -200.000000 1200.000000 500.000000
v -200.000000 -0.000000 -500.000000
v -200.000000 1200.000000 -500.000000
vt 24.000000 20.250000 0.000000
vt -24.000000 20.250000 0.000000
vt 24.000000 14.750000 0.000000
vt -24.000000 -20.250000 0.000000
vt 24.000000 -20.250000 0.000000
vt 24.000000 -20.250000 0.000000
vt 24.000000 -14.750000 0.000000
vt -24.000000 -20.250000 0.000000
vt -24.000000 20.250000 0.000000
vt 24.000000 20.250000 0.000000
vt -35.000000 0.020000 0.000000
vt 0.000000 0.020000 0.000000
vt -35.000000 38.000000 0.000000
vt -0.000000 38.000000 0.000000
vt -48.000000 0.020000 0.000000
vt 0.000000 0.020000 0.000000
vt -48.000000 38.000000 0.000000
vt 0.000000 38.000000 0.000000
vt 24.000000 23.000000 0.000000
vt -24.000000 23.000000 0.000000
vt 24.000000 -23.000000 0.000000
vt -24.000000 -23.000000 0.000000
vt -40.500000 0.020000 0.000000
vt -40.500000 0.010000 0.000000
vt -35.000000 0.020000 0.000000
vt 5.500000 0.010000 0.000000
vt 0.000000 0.020000 0.000000
vt 5.500000 0.020000 0.000000
vt -0.000000 38.000000 0.000000
vt -35.000000 38.000000 0.000000
vt -48.000000 0.010000 0.000000
vt -0.000000 0.010000 0.000000
vt -48.000000 0.020000 0.000000
vt -0.000000 38.000000 0.000000
vt -48.000000 38.000000 0.000000
vt -48.000000 38.000000 0.000000
vt -48.000000 0.000000 0.000000
vt 0.000000 0.020000 0.000000
vt 48.000000 0.000000 0.000000
vt 48.000000 0.020000 0.000000
vt 0.000000 38.000000 0.000000
vt -35.000000 0.020000 0.000000
vt -0.000000 0.020000 0.000000
vt -35.000000 38.000000 0.000000
vt 0.000000 38.000000 0.000000
vt 24.000000 17.500000 0.000000
vt -24.000000 17.500000 0.000000
vt 24.000000 -17.500000 0.000000
vt -24.000000 -17.500000 0.000000
vt -75.500000 0.020000 0.000000
vt -75.500000 0.000000 0.000000
vt -35.000000 0.020000 0.000000
vt 40.500000 0.000000 0.000000
vt -0.000000 0.020000 0.000000
vt 40.500000 0.020000 0.000000
vt 0.000000 38.000000 0.000000
vt -35.000000 38.000000 0.000000
vt -48.000000 0.020000 0.000000
vt -0.000000 0.020000 0.000000
vt -48.000000 38.000000 0.000000
vt -0.000000 38.000000 0.000000
vt 24.000000 17.500000 0.000000
vt -24.000000 17.500000 0.000000
vt 24.000000 -17.500000 0.000000
vt -24.000000 -17.500000 0.000000
vt -35.000000 38.000000 0.000000
vt -35.000000 0.000000 0.000000
vt 0.000000 0.010000 0.000000
vt 81.000000 0.000000 0.000000
vt 46.000000 0.010000 0.000000
vt 81.000000 38.000000 0.000000
vt 46.000000 38.000000 0.000000
vt 0.000000 38.000000 0.000000
vt 0.000000 0.010000 0.000000
vt 0.000000 0.020000 0.000000
vt -48.000000 0.010000 0.000000
vt -48.000000 38.000000 0.000000
vt 0.000000 38.000000 0.000000
vt -96.000000 0.020000 0.000000
vt -96.000000 0.000000 0.000000
vt -48.000000 0.020000 0.000000
vt -0.000000 0.000000 0.000000
vt -0.000000 38.000000 0.000000
vt -48.000000 38.000000 0.000000
vt -24.000000 -17.500000 0.000000
vt 24.000000 -17.500000 0.000000
vt -24.000000 17.500000 0.000000
vt 24.000000 17.500000 0.000000
vt 0.000000 0.000000 0.000000
vt 100.000000 0.000000 0.000000
vt 0.000000 120.000000 0.000000
vt 100.000000 120.000000 0.000000
vt 0.000000 0.000000 0.000000
vt 40.000000 -0.000000 0.000000
vt 0.000000 120.000000 0.000000
vt 40.000000 120.000000 0.000000
vt 2.000000 118.000000 0.000000
vt -0.000000 0.000000 0.000000
vt 2.000000 2.000000 0.000000
vt 100.000000 0.000000 0.000000
vt 98.000000 2.000000 0.000000
vt 98.000000 118.000000 0.000000
vt 100.000000 120.000000 0.000000
vt -0.000000 120.000000 0.000000
vt 0.000000 0.000000 0.000000
vt 40.000000 0.000000 0.000000
vt -0.000000 120.000000 0.000000
vt 40.000000 120.000000 0.000000
vt -50.000000 -20.000000 0.000000
vt 50.000000 -20.000000 0.000000
vt -50.000000 20.000000 0.000000
vt 50.000000 20.000000 0.000000
vt 20.000000 50.000000 0.000000
vt -20.000000 50.000000 0.000000
vt 20.000000 -50.000000 0.000000
vt -20.000000 -50.000000 0.000000
vn -0.100000 0.000000 -0.000000
vn -0.100000 0.000000 -0.000000
vn -0.100000 0.000000 -0.000000
vn -0.100000 0.000000 -0.000000
vn -0.100000 0.000000 -0.000000
vn -0.100000 0.000000 0.000000
vn -0.100000 0.000000 0.000000
vn -0.100000 0.000000 0.000000
vn -0.100000 0.000000 0.000000
vn -0.100000 0.000000 0.000000
vn -0.000000 0.000000 0.100000
vn -0.000000 0.000000 0.100000
vn -0.000000 0.000000 0.100000
vn -0.000000 0.000000 0.100000
vn -0.000000 -0.100000 0.000000
vn -0.000000 -0.100000 0.000000
vn -0.000000 -0.100000 0.000000
vn -0.000000 -0.100000 0.000000
vn -0.100000 0.000000 0.000000
vn -0.100000 0.000000 0.000000
vn -0.100000 0.000000 0.000000
vn -0.100000 0.000000 0.000000
vn 0.000000 -0.000000 -0.100000
vn 0.000000 -0.000000 -0.100000
vn 0.000000 -0.000000 -0.100000
vn 0.000000 -0.000000 -0.100000
vn 0.000000 -0.000000 -0.100000
vn 0.000000 -0.000000 -0.100000
vn 0.000000 -0.000000 -0.100000
vn 0.000000 -0.000000 -0.100000
vn 0.000000 0.100000 -0.000000
vn 0.000000 0.100000 -0.000000
vn 0.000000 0.100000 -0.000000
vn 0.000000 0.100000 -0.000000
vn 0.000000 0.100000 -0.000000
vn -0.000000 -0.100000 0.000000
vn -0.000000 -0.100000 0.000000
vn -0.000000 -0.100000 0.000000
vn -0.000000 -0.100000 0.000000
vn -0.000000 -0.100000 0.000000
vn -0.000000 -0.100000 0.000000
vn -0.000000 0.000000 0.100000
vn -0.000000 0.000000 0.100000
vn -0.000000 0.000000 0.100000
vn -0.000000 0.000000 0.100000
vn -0.100000 0.000000 -0.000000
vn -0.100000 0.000000 -0.000000
vn -0.100000 0.000000 -0.000000
vn -0.100000 0.000000 -0.000000
vn -0.000000 0.000000 0.100000
vn -0.000000 0.000000 0.100000
vn -0.000000 0.000000 0.100000
vn -0.000000 0.000000 0.100000
vn -0.000000 0.000000 0.100000
vn -0.000000 0.000000 0.100000
vn -0.000000 0.000000 0.100000
vn -0.000000 0.000000 0.100000
vn 0.000000 0.100000 -0.000000
vn 0.000000 0.100000 -0.000000
vn 0.000000 0.100000 -0.000000
vn 0.000000 0.100000 -0.000000
vn -0.100000 0.000000 -0.000000
vn -0.100000 0.000000 -0.000000
vn -0.100000 0.000000 -0.000000
vn -0.100000 0.000000 -0.000000
vn 0.000000 -0.000000 -0.100000
vn 0.000000 -0.000000 -0.100000
vn 0.000000 -0.000000 -0.100000
vn 0.000000 -0.000000 -0.100000
vn 0.000000 -0.000000 -0.100000
vn 0.000000 -0.000000 -0.100000
vn 0.000000 -0.000000 -0.100000
vn 0.000000 -0.000000 -0.100000
vn -0.000000 -0.100000 0.000000
vn -0.000000 -0.100000 0.000000
vn -0.000000 -0.100000 0.000000
vn -0.000000 -0.100000 0.000000
vn -0.000000 -0.100000 0.000000
vn 0.000000 0.100000 -0.000000
vn 0.000000 0.100000 -0.000000
vn 0.000000 0.100000 -0.000000
vn 0.000000 0.100000 -0.000000
vn 0.000000 0.100000 -0.000000
vn 0.000000 0.100000 -0.000000
vn -0.100000 0.000000 -0.000000
vn -0.100000 0.000000 -0.000000
vn -0.100000 0.000000 -0.000000
vn -0.100000 0.000000 -0.000000
vn 0.100000 0.000000 -0.000000
vn 0.100000 0.000000 -0.000000
vn 0.100000 0.000000 -0.000000
vn 0.100000 0.000000 -0.000000
vn 0.000000 -0.000000 0.100000
vn 0.000000 -0.000000 0.100000
vn 0.000000 -0.000000 0.100000
vn 0.000000 -0.000000 0.100000
vn -0.100000 0.000000 0.000000
vn -0.100000 0.000000 0.000000
vn -0.100000 0.000000 0.000000
vn -0.100000 0.000000 0.000000
vn -0.100000 0.000000 0.000000
vn -0.100000 0.000000 0.000000
vn -0.100000 0.000000 0.000000
vn -0.100000 0.000000 0.000000
vn 0.000000 0.000000 -0.100000
vn 0.000000 0.000000 -0.100000
vn 0.000000 0.000000 -0.100000
vn 0.000000 0.000000 -0.100000
vn 0.000000 0.100000 0.000000
vn 0.000000 0.100000 0.000000
vn 0.000000 0.100000 0.000000
vn 0.000000 0.100000 0.000000
vn 0.000000 -0.100000 -0.000000
vn 0.000000 -0.100000 -0.000000
vn 0.000000 -0.100000 -0.000000
vn 0.000000 -0.100000 -0.000000
usemtl Papier_(Weiß)
f 2/1/1 3/2/2 1/3/3
f 1/3/3 3/2/2 4/4/4
f 1/3/3 4/4/4 5/5/5
f 7/6/6 8/7/7 6/8/8
f 6/8/8 8/7/7 10/9/9
f 10/9/9 8/7/7 9/10/10
usemtl Stahl_-_satiniert
f 1/11/11 5/12/12 12/13/13
f 12/13/13 5/12/12 11/14/14
f 7/15/15 6/16/16 14/17/17
f 14/17/17 6/16/16 13/18/18
usemtl Papier_(Weiß)
f 15/19/19 16/20/20 18/21/21
f 18/21/21 16/20/20 17/22/22
usemtl Stahl_-_satiniert
f 1/23/23 17/24/24 2/25/25
f 2/25/25 17/24/24 16/26/26
f 2/25/25 16/26/26 7/27/27
f 7/27/27 16/26/26 8/28/28
f 14/29/29 19/30/30 7/27/27
f 7/27/27 19/30/30 2/25/25
f 16/31/31 15/32/32 8/33/33
f 8/33/33 15/32/32 20/34/34
f 8/33/33 20/34/34 21/35/35
f 25/36/36 22/37/37 9/38/38
f 9/38/38 22/37/37 23/39/39
f 9/38/38 23/39/39 10/40/40
f 9/38/38 24/41/41 25/36/36
f 9/42/42 8/43/43 24/44/44
f 24/44/44 8/43/43 21/45/45
f 25/46/46 24/47/47 20/48/48
f 20/48/48 24/47/47 21/49/49
f 10/50/50 23/51/51 6/52/52
f 6/52/52 23/51/51 26/53/53
f 6/52/52 26/53/53 3/54/54
f 3/54/54 26/53/53 4/55/55
f 27/56/56 13/57/57 3/54/54
f 3/54/54 13/57/57 6/52/52
f 3/58/58 2/59/59 27/60/60
f 27/60/60 2/59/59 19/61/61
f 14/62/62 13/63/63 19/64/64
f 19/64/64 13/63/63 27/65/65
f 30/66/66 28/67/67 18/68/68
f 18/68/68 28/67/67 22/69/69
f 18/68/68 22/69/69 15/70/70
f 15/70/70 22/69/69 25/71/71
f 15/70/70 25/71/71 20/72/72
f 18/68/68 29/73/73 30/66/66
f 17/74/74 1/75/75 18/76/76
f 18/76/76 1/75/75 29/77/77
f 29/77/77 1/75/75 12/78/78
f 4/79/79 26/80/80 5/81/81
f 5/81/81 26/80/80 28/82/82
f 5/81/81 28/82/82 30/83/83
f 30/83/83 11/84/84 5/81/81
f 11/85/85 30/86/86 12/87/87
f 12/87/87 30/86/86 29/88/88
f 31/89/89 32/90/90 34/91/91
f 34/91/91 32/90/90 33/92/92
f 35/93/93 31/94/94 36/95/95
f 36/95/95 31/94/94 34/96/96
f 23/97/97 37/98/98 26/99/99
f 26/99/99 37/98/98 35/100/100
f 26/99/99 35/100/100 28/101/101
f 28/101/101 35/100/100 22/102/102
f 22/102/102 35/100/100 36/103/103
f 22/102/102 36/103/103 38/104/104
f 37/98/98 23/97/97 38/104/104
f 38/104/104 23/97/97 22/102/102
f 32/105/105 37/106/106 33/107/107
f 33/107/107 37/106/106 38/108/108
f 38/109/109 36/110/110 33/111/111
f 33/111/111 36/110/110 34/112/112
f 37/113/113 32/114/114 35/115/115
f 35/115/115 32/114/114 31/116/116
# 38 vertices
# 116 texture params
# 116 normals
# 72 facets

# 1 groups
